<svg xmlns="http://www.w3.org/2000/svg" xmlns:xlink="http://www.w3.org/1999/xlink" width="375" viewBox="0 0 375 375" height="375" version="1.0"><defs><g id="c"><path d="M 136.195312 -38.800781 C 136.195312 -68.199219 96.398438 -79.398438 70.398438 -88.199219 C 47.796875 -95.796875 44.398438 -98.199219 44.398438 -104.597656 C 44.398438 -111.796875 53.398438 -114.996094 67.796875 -114.996094 C 85.199219 -114.996094 98.398438 -110.195312 98.398438 -92.996094 L 130.398438 -92.996094 C 130.398438 -120.996094 110.996094 -142.996094 67.796875 -142.996094 C 31.398438 -142.996094 12.398438 -129.796875 12.398438 -105.796875 C 12.398438 -78.199219 36.597656 -70.199219 66.398438 -60.199219 C 86.996094 -53.199219 104.199219 -48.597656 104.199219 -38.398438 C 104.199219 -30.800781 97.398438 -26 76.796875 -26 C 48.796875 -26 38 -32.800781 38 -54.398438 L 6 -54.398438 C 6 -18.800781 25 2 75.796875 2 C 119.195312 2 136.195312 -14.601562 136.195312 -38.800781 Z M 136.195312 -38.800781"/></g><g id="d"><path d="M 151.394531 0 L 103.597656 -140.996094 L 51.597656 -140.996094 L 4 0 L 36.398438 0 L 48 -35.199219 L 107.398438 -35.199219 L 118.996094 0 Z M 73.597656 -112.996094 L 81.597656 -112.996094 L 97.996094 -63.199219 L 57.199219 -63.199219 Z M 73.597656 -112.996094"/></g><linearGradient x1="0" gradientTransform="matrix(375 0 0 375 0 0)" xmlns:xlink="http://www.w3.org/1999/xlink" y1="0" x2="1.005" gradientUnits="userSpaceOnUse" y2=".995" xlink:type="simple" xlink:actuate="onLoad" id="b" xlink:show="other"><stop stop-color="#7ED957" offset="0"/><stop stop-color="#7DD957" offset=".008"/><stop stop-color="#7DD857" offset=".016"/><stop stop-color="#7CD756" offset=".023"/><stop stop-color="#7BD756" offset=".031"/><stop stop-color="#7AD656" offset=".039"/><stop stop-color="#79D556" offset=".047"/><stop stop-color="#78D555" offset=".055"/><stop stop-color="#77D455" offset=".063"/><stop stop-color="#76D355" offset=".07"/><stop stop-color="#75D255" offset=".078"/><stop stop-color="#74D254" offset=".086"/><stop stop-color="#73D154" offset=".094"/><stop stop-color="#72D054" offset=".102"/><stop stop-color="#71D054" offset=".109"/><stop stop-color="#70CF53" offset=".117"/><stop stop-color="#6FCE53" offset=".125"/><stop stop-color="#6ECE53" offset=".133"/><stop stop-color="#6DCD53" offset=".141"/><stop stop-color="#6CCC52" offset=".148"/><stop stop-color="#6BCC52" offset=".156"/><stop stop-color="#6ACB52" offset=".164"/><stop stop-color="#69CA52" offset=".172"/><stop stop-color="#68CA51" offset=".18"/><stop stop-color="#67C951" offset=".188"/><stop stop-color="#66C851" offset=".195"/><stop stop-color="#65C751" offset=".203"/><stop stop-color="#64C750" offset=".211"/><stop stop-color="#63C650" offset=".219"/><stop stop-color="#62C550" offset=".227"/><stop stop-color="#61C550" offset=".234"/><stop stop-color="#60C44F" offset=".242"/><stop stop-color="#5FC34F" offset=".25"/><stop stop-color="#5EC34F" offset=".258"/><stop stop-color="#5DC24F" offset=".266"/><stop stop-color="#5CC14E" offset=".273"/><stop stop-color="#5BC14E" offset=".281"/><stop stop-color="#5AC04E" offset=".289"/><stop stop-color="#59BF4E" offset=".297"/><stop stop-color="#59BF4D" offset=".305"/><stop stop-color="#58BE4D" offset=".313"/><stop stop-color="#57BD4D" offset=".32"/><stop stop-color="#56BC4D" offset=".328"/><stop stop-color="#55BC4C" offset=".336"/><stop stop-color="#54BB4C" offset=".344"/><stop stop-color="#53BA4C" offset=".352"/><stop stop-color="#52BA4C" offset=".359"/><stop stop-color="#51B94C" offset=".367"/><stop stop-color="#50B84B" offset=".375"/><stop stop-color="#4FB84B" offset=".383"/><stop stop-color="#4EB74B" offset=".391"/><stop stop-color="#4DB64B" offset=".398"/><stop stop-color="#4CB64A" offset=".406"/><stop stop-color="#4BB54A" offset=".414"/><stop stop-color="#4AB44A" offset=".422"/><stop stop-color="#49B44A" offset=".43"/><stop stop-color="#48B349" offset=".438"/><stop stop-color="#47B249" offset=".445"/><stop stop-color="#46B149" offset=".453"/><stop stop-color="#45B149" offset=".461"/><stop stop-color="#44B048" offset=".469"/><stop stop-color="#43AF48" offset=".477"/><stop stop-color="#42AF48" offset=".484"/><stop stop-color="#41AE48" offset=".492"/><stop stop-color="#40AD47" offset=".498"/><stop stop-color="#40AD47" offset=".5"/><stop stop-color="#3FAD47" offset=".502"/><stop stop-color="#3FAC47" offset=".508"/><stop stop-color="#3EAC47" offset=".516"/><stop stop-color="#3DAB47" offset=".523"/><stop stop-color="#3CAB46" offset=".531"/><stop stop-color="#3BAA46" offset=".539"/><stop stop-color="#3AA946" offset=".547"/><stop stop-color="#39A946" offset=".555"/><stop stop-color="#38A845" offset=".563"/><stop stop-color="#37A745" offset=".57"/><stop stop-color="#36A745" offset=".578"/><stop stop-color="#36A645" offset=".586"/><stop stop-color="#35A544" offset=".594"/><stop stop-color="#34A444" offset=".602"/><stop stop-color="#33A444" offset=".609"/><stop stop-color="#32A344" offset=".617"/><stop stop-color="#31A243" offset=".625"/><stop stop-color="#30A243" offset=".633"/><stop stop-color="#2FA143" offset=".641"/><stop stop-color="#2EA043" offset=".648"/><stop stop-color="#2DA042" offset=".656"/><stop stop-color="#2C9F42" offset=".664"/><stop stop-color="#2B9E42" offset=".672"/><stop stop-color="#2A9E42" offset=".68"/><stop stop-color="#299D41" offset=".688"/><stop stop-color="#289C41" offset=".695"/><stop stop-color="#279C41" offset=".703"/><stop stop-color="#269B41" offset=".711"/><stop stop-color="#259A40" offset=".719"/><stop stop-color="#249940" offset=".727"/><stop stop-color="#239940" offset=".734"/><stop stop-color="#229840" offset=".742"/><stop stop-color="#21973F" offset=".75"/><stop stop-color="#20973F" offset=".758"/><stop stop-color="#1F963F" offset=".766"/><stop stop-color="#1E953F" offset=".773"/><stop stop-color="#1D953E" offset=".781"/><stop stop-color="#1C943E" offset=".789"/><stop stop-color="#1B933E" offset=".797"/><stop stop-color="#1A933E" offset=".805"/><stop stop-color="#19923D" offset=".813"/><stop stop-color="#18913D" offset=".82"/><stop stop-color="#17913D" offset=".828"/><stop stop-color="#16903D" offset=".836"/><stop stop-color="#158F3C" offset=".844"/><stop stop-color="#148E3C" offset=".852"/><stop stop-color="#138E3C" offset=".859"/><stop stop-color="#138D3C" offset=".867"/><stop stop-color="#128C3C" offset=".875"/><stop stop-color="#118C3B" offset=".883"/><stop stop-color="#108B3B" offset=".891"/><stop stop-color="#0F8A3B" offset=".898"/><stop stop-color="#0E8A3B" offset=".906"/><stop stop-color="#0D893A" offset=".914"/><stop stop-color="#0C883A" offset=".922"/><stop stop-color="#0B883A" offset=".93"/><stop stop-color="#0A873A" offset=".938"/><stop stop-color="#098639" offset=".945"/><stop stop-color="#088639" offset=".953"/><stop stop-color="#078539" offset=".961"/><stop stop-color="#068439" offset=".969"/><stop stop-color="#058338" offset=".977"/><stop stop-color="#048338" offset=".984"/><stop stop-color="#038238" offset=".992"/><stop stop-color="#028138" offset="1"/></linearGradient><clipPath id="a"><path d="M 375 187.5 C 375 190.570312 374.925781 193.636719 374.773438 196.699219 C 374.625 199.765625 374.398438 202.824219 374.097656 205.878906 C 373.796875 208.933594 373.421875 211.976562 372.96875 215.011719 C 372.519531 218.046875 371.996094 221.070312 371.398438 224.078125 C 370.796875 227.089844 370.125 230.082031 369.378906 233.058594 C 368.636719 236.035156 367.816406 238.992188 366.925781 241.929688 C 366.035156 244.863281 365.074219 247.777344 364.039062 250.667969 C 363.003906 253.554688 361.902344 256.417969 360.726562 259.253906 C 359.554688 262.089844 358.308594 264.890625 356.996094 267.667969 C 355.6875 270.441406 354.308594 273.179688 352.859375 275.886719 C 351.414062 278.59375 349.902344 281.261719 348.324219 283.894531 C 346.746094 286.527344 345.105469 289.117188 343.402344 291.667969 C 341.695312 294.222656 339.929688 296.730469 338.101562 299.195312 C 336.273438 301.660156 334.386719 304.078125 332.4375 306.449219 C 330.492188 308.820312 328.488281 311.144531 326.429688 313.417969 C 324.367188 315.691406 322.253906 317.914062 320.082031 320.082031 C 317.914062 322.253906 315.691406 324.367188 313.417969 326.429688 C 311.144531 328.488281 308.820312 330.492188 306.449219 332.4375 C 304.078125 334.386719 301.660156 336.273438 299.195312 338.101562 C 296.730469 339.929688 294.222656 341.695312 291.667969 343.402344 C 289.117188 345.105469 286.527344 346.746094 283.894531 348.324219 C 281.261719 349.902344 278.59375 351.414062 275.886719 352.859375 C 273.179688 354.308594 270.441406 355.6875 267.667969 356.996094 C 264.890625 358.308594 262.089844 359.554688 259.253906 360.726562 C 256.417969 361.902344 253.554688 363.003906 250.667969 364.039062 C 247.777344 365.074219 244.863281 366.035156 241.929688 366.925781 C 238.992188 367.816406 236.035156 368.636719 233.058594 369.378906 C 230.082031 370.125 227.089844 370.796875 224.078125 371.398438 C 221.070312 371.996094 218.046875 372.519531 215.011719 372.96875 C 211.976562 373.421875 208.933594 373.796875 205.878906 374.097656 C 202.824219 374.398438 199.765625 374.625 196.699219 374.773438 C 193.636719 374.925781 190.570312 375 187.5 375 C 184.429688 375 181.363281 374.925781 178.300781 374.773438 C 175.234375 374.625 172.175781 374.398438 169.121094 374.097656 C 166.066406 373.796875 163.023438 373.421875 159.988281 372.96875 C 156.953125 372.519531 153.929688 371.996094 150.921875 371.398438 C 147.910156 370.796875 144.917969 370.125 141.941406 369.378906 C 138.964844 368.636719 136.007812 367.816406 133.070312 366.925781 C 130.136719 366.035156 127.222656 365.074219 124.332031 364.039062 C 121.445312 363.003906 118.582031 361.902344 115.746094 360.726562 C 112.910156 359.554688 110.105469 358.308594 107.332031 356.996094 C 104.558594 355.6875 101.820312 354.308594 99.113281 352.859375 C 96.40625 351.414062 93.738281 349.902344 91.105469 348.324219 C 88.472656 346.746094 85.882812 345.105469 83.332031 343.402344 C 80.777344 341.695312 78.269531 339.929688 75.804688 338.101562 C 73.339844 336.273438 70.921875 334.386719 68.550781 332.4375 C 66.179688 330.492188 63.855469 328.488281 61.582031 326.429688 C 59.308594 324.367188 57.085938 322.253906 54.917969 320.082031 C 52.746094 317.914062 50.632812 315.691406 48.570312 313.417969 C 46.511719 311.144531 44.507812 308.820312 42.558594 306.449219 C 40.613281 304.078125 38.726562 301.660156 36.898438 299.195312 C 35.070312 296.730469 33.304688 294.222656 31.597656 291.667969 C 29.894531 289.117188 28.253906 286.527344 26.675781 283.894531 C 25.097656 281.261719 23.585938 278.59375 22.140625 275.886719 C 20.691406 273.179688 19.3125 270.441406 18.003906 267.667969 C 16.691406 264.890625 15.445312 262.089844 14.273438 259.253906 C 13.097656 256.417969 11.996094 253.554688 10.960938 250.667969 C 9.925781 247.777344 8.964844 244.863281 8.074219 241.929688 C 7.183594 238.992188 6.363281 236.035156 5.621094 233.058594 C 4.875 230.082031 4.203125 227.089844 3.601562 224.078125 C 3.003906 221.070312 2.480469 218.046875 2.03125 215.011719 C 1.578125 211.976562 1.203125 208.933594 0.902344 205.878906 C 0.601562 202.824219 0.375 199.765625 0.226562 196.699219 C 0.0742188 193.636719 0 190.570312 0 187.5 C 0 184.429688 0.0742188 181.363281 0.226562 178.300781 C 0.375 175.234375 0.601562 172.175781 0.902344 169.121094 C 1.203125 166.066406 1.578125 163.023438 2.03125 159.988281 C 2.480469 156.953125 3.003906 153.929688 3.601562 150.921875 C 4.203125 147.910156 4.875 144.917969 5.621094 141.941406 C 6.363281 138.964844 7.183594 136.007812 8.074219 133.070312 C 8.964844 130.136719 9.925781 127.222656 10.960938 124.332031 C 11.996094 121.445312 13.097656 118.582031 14.273438 115.746094 C 15.445312 112.910156 16.691406 110.105469 18.003906 107.332031 C 19.3125 104.558594 20.691406 101.820312 22.140625 99.113281 C 23.585938 96.40625 25.097656 93.738281 26.675781 91.105469 C 28.253906 88.472656 29.894531 85.882812 31.597656 83.332031 C 33.304688 80.777344 35.070312 78.269531 36.898438 75.804688 C 38.726562 73.339844 40.613281 70.921875 42.558594 68.550781 C 44.507812 66.179688 46.511719 63.855469 48.570312 61.582031 C 50.632812 59.308594 52.746094 57.085938 54.917969 54.917969 C 57.085938 52.746094 59.308594 50.632812 61.582031 48.570312 C 63.855469 46.511719 66.179688 44.507812 68.550781 42.558594 C 70.921875 40.613281 73.339844 38.726562 75.804688 36.898438 C 78.269531 35.070312 80.777344 33.304688 83.332031 31.597656 C 85.882812 29.894531 88.472656 28.253906 91.105469 26.675781 C 93.738281 25.097656 96.40625 23.585938 99.113281 22.140625 C 101.820312 20.691406 104.558594 19.3125 107.332031 18.003906 C 110.105469 16.691406 112.910156 15.445312 115.746094 14.273438 C 118.582031 13.097656 121.445312 11.996094 124.332031 10.960938 C 127.222656 9.925781 130.136719 8.964844 133.070312 8.074219 C 136.007812 7.183594 138.964844 6.363281 141.941406 5.617188 C 144.917969 4.875 147.910156 4.203125 150.921875 3.601562 C 153.929688 3.003906 156.953125 2.480469 159.988281 2.03125 C 163.023438 1.578125 166.066406 1.203125 169.121094 0.902344 C 172.175781 0.601562 175.234375 0.375 178.300781 0.226562 C 181.363281 0.0742188 184.429688 0 187.5 0 C 190.570312 0 193.636719 0.0742188 196.699219 0.226562 C 199.765625 0.375 202.824219 0.601562 205.878906 0.902344 C 208.933594 1.203125 211.976562 1.578125 215.011719 2.03125 C 218.046875 2.480469 221.070312 3.003906 224.078125 3.601562 C 227.089844 4.203125 230.082031 4.875 233.058594 5.617188 C 236.035156 6.363281 238.992188 7.183594 241.929688 8.074219 C 244.863281 8.964844 247.777344 9.925781 250.667969 10.960938 C 253.554688 11.996094 256.417969 13.097656 259.253906 14.273438 C 262.089844 15.445312 264.890625 16.691406 267.667969 18.003906 C 270.441406 19.3125 273.179688 20.691406 275.886719 22.140625 C 278.59375 23.585938 281.261719 25.097656 283.894531 26.675781 C 286.527344 28.253906 289.117188 29.894531 291.667969 31.597656 C 294.222656 33.304688 296.730469 35.070312 299.195312 36.898438 C 301.660156 38.726562 304.078125 40.613281 306.449219 42.558594 C 308.820312 44.507812 311.144531 46.511719 313.417969 48.570312 C 315.691406 50.632812 317.914062 52.746094 320.082031 54.917969 C 322.253906 57.085938 324.367188 59.308594 326.429688 61.582031 C 328.488281 63.855469 330.492188 66.179688 332.4375 68.550781 C 334.386719 70.921875 336.273438 73.339844 338.101562 75.804688 C 339.929688 78.269531 341.695312 80.777344 343.402344 83.332031 C 345.105469 85.882812 346.746094 88.472656 348.324219 91.105469 C 349.902344 93.738281 351.414062 96.40625 352.859375 99.113281 C 354.308594 101.820312 355.6875 104.558594 356.996094 107.332031 C 358.308594 110.105469 359.554688 112.910156 360.726562 115.746094 C 361.902344 118.582031 363.003906 121.445312 364.039062 124.332031 C 365.074219 127.222656 366.035156 130.136719 366.925781 133.070312 C 367.816406 136.007812 368.636719 138.964844 369.378906 141.941406 C 370.125 144.917969 370.796875 147.910156 371.398438 150.921875 C 371.996094 153.929688 372.519531 156.953125 372.96875 159.988281 C 373.421875 163.023438 373.796875 166.066406 374.097656 169.121094 C 374.398438 172.175781 374.625 175.234375 374.773438 178.300781 C 374.925781 181.363281 375 184.429688 375 187.5 Z M 375 187.5"/></clipPath></defs><g clip-path="url(#a)"><path fill="url(#b)" d="M-37.5 -37.5H412.5V412.5H-37.5z"/></g><g fill="#FFF"><use x="39.897" y="256.007" xmlns:xlink="http://www.w3.org/1999/xlink" xlink:href="#c" xlink:type="simple" xlink:actuate="onLoad" xlink:show="embed"/></g><g fill="#FFF"><use x="182.093" y="256.007" xmlns:xlink="http://www.w3.org/1999/xlink" xlink:href="#d" xlink:type="simple" xlink:actuate="onLoad" xlink:show="embed"/></g></svg>